<?xml version="1.0" standalone="no"?>
<!DOCTYPE svg PUBLIC "-//W3C//DTD SVG 20010904//EN"
 "http://www.w3.org/TR/2001/REC-SVG-20010904/DTD/svg10.dtd">
<svg version="1.0" xmlns="http://www.w3.org/2000/svg"
 width="720.000000pt" height="720.000000pt" viewBox="0 0 720.000000 720.000000"
 preserveAspectRatio="xMidYMid meet">
<metadata>
Created by potrace 1.14, written by Peter Selinger 2001-2017
</metadata>
<g transform="translate(0.000000,720.000000) scale(0.100000,-0.100000)"
fill="#000000" stroke="none">
<path d="M250 3605 l0 -3355 3355 0 3355 0 0 3355 0 3355 -3355 0 -3355 0 0
-3355z m6510 0 l0 -3155 -3155 0 -3155 0 0 3155 0 3155 3155 0 3155 0 0 -3155z"/>
<path d="M1290 6409 c-126 -23 -153 -32 -211 -70 -88 -56 -138 -139 -164 -272
-12 -57 -14 -145 -11 -417 5 -420 11 -457 107 -612 61 -99 236 -328 347 -453
216 -243 330 -418 352 -534 13 -72 13 -549 0 -588 -13 -37 -55 -53 -141 -53
-82 0 -131 23 -140 65 -4 17 -7 207 -8 423 l-1 392 -257 -2 -258 -3 0 -445 c0
-245 3 -463 7 -485 30 -171 106 -258 273 -313 58 -20 77 -24 175 -40 57 -9
354 -9 440 0 89 9 197 37 241 62 113 65 178 172 196 326 9 70 9 636 1 715 -23
213 -86 328 -374 685 -73 91 -180 224 -238 295 -197 244 -199 249 -204 559 -2
131 -1 258 3 283 9 62 43 81 143 81 84 0 126 -11 139 -36 4 -9 10 -186 13
-392 l5 -375 260 0 260 0 -1 395 c0 217 -4 418 -8 445 -18 131 -60 210 -141
267 -68 48 -135 73 -280 104 -16 4 -120 8 -230 9 -158 2 -220 -1 -295 -16z"/>
<path d="M5425 6415 c-253 -39 -356 -121 -412 -325 -17 -61 -18 -147 -18
-1370 0 -718 3 -1323 8 -1346 30 -159 93 -252 210 -308 104 -51 202 -68 407
-72 212 -3 321 9 441 50 171 59 253 159 275 336 9 76 11 2570 1 2650 -10 90
-25 137 -64 197 -57 86 -159 144 -318 179 -102 22 -415 27 -530 9z m335 -418
c25 -9 38 -20 45 -43 16 -49 13 -2472 -3 -2501 -15 -26 -68 -43 -137 -43 -77
0 -124 17 -137 48 -14 33 -19 2428 -5 2482 5 19 13 39 17 44 24 24 162 33 220
13z"/>
<path d="M2959 6378 c0 -31 0 -3283 0 -3330 l1 -38 260 0 c200 0 260 3 262 13
1 6 2 368 4 802 1 435 3 796 3 803 1 9 35 12 134 12 l132 0 0 -812 0 -813 263
-3 c244 -2 262 -1 263 15 4 75 3 3357 -2 3364 -3 5 -114 8 -265 7 l-259 -3 0
-635 0 -635 -134 0 -135 0 0 635 -1 635 -262 3 -263 2 -1 -22z"/>
<path d="M5800 2574 c-79 -18 -126 -52 -160 -120 l-25 -49 -3 -709 c-2 -617
-1 -716 13 -763 34 -117 115 -162 302 -169 216 -8 334 32 383 131 l25 50 0
725 c0 668 -2 729 -18 771 -25 66 -89 113 -182 135 -60 13 -269 12 -335 -2z
m230 -224 c13 -8 15 -94 15 -675 0 -581 -2 -667 -15 -675 -23 -14 -94 -12
-115 4 -19 13 -19 36 -19 671 0 635 0 658 19 671 21 16 92 18 115 4z"/>
<path d="M897 2573 c-2 -5 -4 -413 -3 -908 l1 -900 128 -3 127 -3 1 618 c1
571 5 643 24 438 3 -38 8 -77 10 -85 2 -8 6 -44 10 -80 3 -36 7 -75 9 -85 2
-11 7 -51 11 -90 8 -78 12 -119 20 -185 3 -25 8 -65 10 -90 3 -25 7 -61 10
-80 2 -19 9 -81 15 -137 6 -56 13 -111 15 -123 2 -13 5 -40 7 -61 l2 -39 127
0 c114 0 126 2 126 18 -1 9 2 46 7 82 4 36 9 83 12 105 8 88 25 241 29 265 2
14 7 57 10 95 11 112 12 118 18 165 4 25 9 74 12 110 3 36 8 76 10 90 2 14 7
52 10 85 3 33 7 76 10 95 2 19 7 64 11 100 3 36 8 67 10 69 2 2 4 -284 4 -637
l0 -642 125 0 125 0 0 53 c1 66 1 1643 0 1715 l0 52 -205 0 c-157 0 -205 -3
-206 -12 -1 -7 -3 -26 -4 -43 -2 -16 -6 -70 -9 -120 -4 -49 -9 -106 -11 -125
-2 -19 -6 -75 -10 -125 -3 -49 -8 -110 -10 -135 -3 -25 -7 -76 -10 -115 -3
-38 -8 -95 -10 -125 -5 -57 -16 -205 -21 -275 -1 -22 -3 -49 -4 -60 -3 -24
-16 61 -26 160 -3 39 -7 81 -9 95 -1 14 -5 54 -9 90 -4 36 -9 81 -11 100 -3
19 -7 62 -10 95 -3 33 -8 76 -10 95 -3 19 -7 60 -10 90 -3 30 -7 70 -10 90 -3
19 -7 62 -10 95 -2 33 -8 85 -11 115 -4 30 -8 64 -10 75 -1 11 -3 23 -3 28 -1
4 -93 7 -205 7 -113 0 -207 -3 -209 -7z"/>
<path d="M2443 2568 c0 -16 -13 -134 -18 -168 -5 -32 -13 -109 -20 -185 -4
-33 -8 -71 -10 -85 -6 -42 -16 -123 -20 -170 -5 -49 -13 -126 -20 -180 -5 -35
-7 -58 -20 -175 -4 -33 -8 -71 -10 -85 -2 -14 -7 -52 -10 -85 -10 -99 -14
-126 -24 -215 -6 -47 -13 -112 -16 -145 -3 -33 -8 -71 -10 -85 -7 -40 -18
-152 -19 -190 l-1 -35 128 -3 c126 -3 127 -2 128 20 0 13 2 30 4 39 1 10 6 52
10 95 4 44 8 90 10 104 7 63 18 176 18 188 0 9 27 12 99 12 l98 0 1 -32 c0
-18 2 -40 3 -48 2 -8 6 -53 9 -100 7 -100 18 -227 21 -255 3 -19 10 -20 147
-20 l144 0 -1 25 c-1 29 -14 154 -19 190 -2 14 -7 52 -10 85 -3 33 -8 71 -10
85 -2 14 -7 56 -11 95 -3 38 -7 76 -9 85 -2 8 -6 47 -10 85 -4 39 -8 81 -10
95 -2 14 -7 52 -10 85 -4 33 -8 71 -10 85 -2 14 -7 52 -10 85 -3 33 -8 76 -10
95 -15 121 -25 213 -30 265 -3 33 -8 71 -10 85 -2 14 -7 56 -11 95 -3 38 -7
77 -9 87 -2 9 -7 48 -11 85 -3 37 -8 75 -9 83 -2 13 -34 15 -212 18 -164 2
-210 0 -210 -10z m211 -438 c3 -30 8 -91 12 -135 4 -44 8 -93 9 -110 2 -16 6
-68 10 -115 4 -47 8 -92 10 -100 2 -8 7 -57 10 -107 l7 -93 -71 0 -71 0 4 28
c3 15 8 56 11 92 3 36 8 83 10 105 2 22 7 72 10 110 3 39 8 81 10 95 2 14 7
59 11 100 3 41 8 86 9 100 2 14 3 40 4 59 1 49 8 35 15 -29z"/>
<path d="M3300 2455 l0 -125 310 0 310 0 0 125 0 125 -310 0 -310 0 0 -125z"/>
<path d="M4197 2573 c-2 -5 -4 -413 -3 -908 l1 -900 128 -3 127 -3 1 618 c1
571 5 643 24 438 3 -38 8 -77 10 -85 2 -8 6 -46 10 -83 3 -37 8 -76 10 -85 2
-10 6 -49 10 -87 3 -37 8 -84 10 -104 3 -20 7 -58 10 -86 4 -27 8 -66 10 -85
9 -70 14 -116 20 -175 3 -33 8 -71 10 -85 11 -77 18 -147 16 -162 -2 -16 10
-18 126 -18 116 0 129 2 129 18 0 9 4 46 8 82 8 68 12 106 21 205 3 33 8 71
10 85 2 14 7 54 10 90 3 36 8 76 10 90 2 14 6 54 10 90 4 36 8 76 10 90 2 14
7 54 10 90 4 36 8 72 10 80 2 8 6 53 10 100 4 47 8 92 10 100 2 8 6 49 10 90
4 41 9 77 11 79 2 2 4 -287 4 -642 l0 -647 125 0 125 0 0 38 c1 52 1 1721 1
1755 l-1 27 -205 0 c-157 0 -205 -3 -206 -12 0 -7 -2 -21 -4 -31 -2 -9 -6 -63
-10 -120 -4 -56 -9 -120 -10 -142 -2 -22 -6 -74 -9 -115 -3 -41 -8 -106 -11
-145 -3 -38 -8 -90 -10 -115 -3 -25 -7 -83 -10 -130 -3 -47 -7 -105 -10 -130
-2 -25 -7 -81 -10 -124 -6 -86 -15 -113 -16 -50 0 21 -2 48 -4 59 -2 11 -7 47
-10 80 -3 33 -8 76 -10 95 -2 19 -7 64 -11 100 -3 36 -7 76 -9 90 -1 14 -6 57
-10 95 -3 39 -8 81 -10 95 -4 27 -11 90 -21 190 -3 36 -7 72 -9 80 -1 8 -6 53
-11 100 -4 47 -9 88 -10 93 -1 4 -2 14 -3 22 -1 13 -31 15 -205 15 -113 0
-207 -3 -209 -7z"/>
<path d="M3300 1675 l0 -125 310 0 310 0 0 125 0 125 -310 0 -310 0 0 -125z"/>
<path d="M3300 895 l0 -125 310 0 310 0 0 125 0 125 -310 0 -310 0 0 -125z"/>
</g>
</svg>
