<svg aria-hidden="true" style="position: absolute; width: 0; height: 0; overflow: hidden;" version="1.1" xmlns="http://www.w3.org/2000/svg" xmlns:xlink="http://www.w3.org/1999/xlink">
<defs>

<symbol id="logo" viewBox="0 0 1280 1280">
    <path d="M44 42h1185c6 0 6 0 8 2a94 94 0 0 1 0 10v1181H44c-2-3-1-6-1-10V50l1-8Zm37 37v1120h1120V79H81Z" />
    <path d="M526 142h53a8770 8770 0 0 1 23 0h11c6 0 6 0 8 2a123 123 0 0 1 0 12v53a33581 33581 0 0 1 0 64v96h45V151c0-6 0-6 2-9h27a2845 2845 0 0 1 42 0h24c2 3 2 4 2 7v26a8699 8699 0 0 1 0 83v51a149500 149500 0 0 1 0 179v144a30289 30289 0 0 1 0 67v42l-2 4h-93c-2-3-2-4-2-8V456h-45v167a61004 61004 0 0 1 0 69v18a3637 3637 0 0 0 0 22v9l-2 4h-93l-1-6V146l1-4Zm542 0 2 1c11 2 21 7 31 13v2l2 1c5 2 9 6 11 11l1 2h2c15 28 12 60 12 91v382c0 56 0 56-19 77a99 99 0 0 1-49 23l-3 1c-16 3-32 3-48 3h-11c-17 0-33 0-49-4l-3-1-20-7-2-1-6-3v-2l-2-1-7-4v-2h-2c-18-20-21-45-21-70a1075 1075 0 0 0 0-22V474a68587 68587 0 0 0 0-136V230l1-27 1-2 4-14 1-3c6-15 16-27 31-35 42-19 99-18 143-7Zm-83 76c-3 4-3 7-3 12v185a45256 45256 0 0 1 0 197v31l-1 5a574 574 0 0 0 0 9c1 5 2 8 5 12 7 4 14 4 22 4h2c7 0 15 0 20-5 4-9 3-18 3-27V307a10389 10389 0 0 0 0-65c1-14 1-14-4-26-7-6-20-5-28-4-6 0-12 1-16 6Zm-664-80h3c15 2 29 7 42 14l2 1 2 1v2h2l7 5v2h2v2h2c5 5 5 5 5 9h2c3 7 6 14 7 21l1 2c2 11 2 23 2 34v4a1962 1962 0 0 1 0 22v41a6017 6017 0 0 1 0 31v23l-1 4h-93l-1-7v-31a14632 14632 0 0 1-1-79v-4c0-6 0-12-2-18l-5-1a249 249 0 0 1-5-2l-2-1c-9-1-21-1-30 3-3 2-4 4-5 8-2 8-1 15-1 23v44c0 23 4 42 17 60l1 2a397 397 0 0 0 20 27h2l5 6a395 395 0 0 0 16 22h2l5 6 2 4 2 1 3 5 2 4h2l4 4 2 3 1 4h2l5 6 2 3 2 2 4 6 1 1 3 4c2 2 4 5 4 8h2l3 3 1 3 2 2 1 3a467 467 0 0 1 15 24c3 6 5 11 6 17l2 4 2 10 1 2c3 16 2 32 2 48v63c0 28-2 57-22 78-5 5-5 5-8 5v2c-17 9-34 14-53 15l-5 1h-37c-17 0-33 0-50-4l-3-1c-10-2-20-6-30-11v-2h-2c-9-3-16-13-21-21l-1-2c-8-14-8-32-8-48V521l1-4h85l7 1v39a17026 17026 0 0 1 0 61l1 11a1937 1937 0 0 0 0 17c0 7 0 14 3 21 6 6 17 5 25 5 10 0 10 0 18-4 4-5 4-10 4-17v-63c0-17 0-34-8-49l-2-3c-5-10-11-18-18-27l-3-4-12-14-2-5h-2c-3-3-3-3-3-6h-2l-2-5h-2a88 88 0 0 1-7-8l-1-1-5-7-3-3a596 596 0 0 0-10-13l-2-4h-2l-4-5-3-4-1-2-5-6-22-30-1-2c-19-28-22-55-22-89v-24a2933 2933 0 0 0 0-37v-8c0-25 2-52 21-72 15-14 33-20 53-22h2c28-4 57-4 85 0ZM159 821h74l3 11 1 11 1 9v2l1 8v6l3 23v8l2 8 1 13v5l1 6 1 3v5l1 9 1 9v6l2 12 1 11v5l2 7v7l1 7 4-43v-8l2-12v-13l2-17v-8l1-10 1-14v-4l1-3v-3l1-9v-7l1-2 1-13 1-15v-5l1-5h74l1 7v313l-1 4h-45l-1-210-4 35v4l-1 3-1 7a271 271 0 0 0-2 18l-1 9v2l-1 9-3 32v2l-2 10-1 6v7l-1 7v4a4906 4906 0 0 1-4 38l-1 8v2l-2 7h-46l-3-29-1-3-1-16-1-8-1-8v-3l-1-3-1-7v-6l-2-16-3-26v-4l-1-3-1-7v-6l-3-23-4-33-1 201h-46c-2-2-1-4-1-6V825l1-4Zm590 0h71l3 12v7l1 9 1 9a11004 11004 0 0 1 2 17l1 11 1 7 1 9v2l1 8v6l3 23a363 363 0 0 0 2 24l2 21 1 3 3 21 1-11v-5a826 826 0 0 1 1-7v-5l1-9 1-3v-7l1-12 3-45v-3l1-3v-3l1-7v-10l1-5v-8l1-10 1-2v-6c1-25 1-25 3-28h74v324h-45l-1-11v-51l-1-33V936v7l-1 4-1 7-1 9v2a2120 2120 0 0 0-4 40v2l-2 10-1 7v9l-1 6-1 3v5l-1 9-1 12v2l-1 3v2l-1 6-1 7v9a39 39 0 0 0-2 9v5l-1 8-1 9a952 952 0 0 0-1 8v2l-1 7h-46l-3-20-1-10v-6a277 277 0 0 0-5-37v-4l-1-13-1-8v-2l-1-7-2-8v-7l-1-6-1-12-1-10-1-8v-3l-1-3-1-7v-6l-2-15v-3l-1-5v78l-1 36v80l-1 6h-43l-3-1V824c0-3 0-3 4-3Zm310-2h7c18-1 38 2 51 14 9 11 10 23 10 36v229c0 12-2 21-8 31h-2v2h-2v2c-12 9-27 12-42 12h-17c-16 1-32-1-45-10v-2h-2v-2h-2c-12-13-11-30-11-47v-46a11681 11681 0 0 1 0-113v-48c0-15 1-27 8-40h2l1-2 4-5h2v-2c15-8 29-9 46-9Zm-9 45c-2 3-1 7-1 11v92a18850 18850 0 0 1 0 68v61l2 6 10 1h4c3 0 5 0 8-2l1-8V869l-2-6c-7-4-16-3-22 1Zm-616-43h75l3 9v5a379 379 0 0 0 2 19v6l1 2v2l1 6v6a277 277 0 0 0 5 37v4l1 7 1 13v3l3 19 2 17v4a412 412 0 0 1 4 37 277 277 0 0 0 5 37 1083 1083 0 0 1 2 24v3l4 25 1 11v4l2 23-3 1h-50l-1-9-2-19-3-32v-10l-1-2v-9h-33l-1 12v9l-1 6-1 3v9l-1 9-1 9v3l-3 21h-47l1-20v-4l1-2a1278 1278 0 0 0 6-61l2-12v-4l1-8v-3l1-3 1-7 1-6v-9l2-11v-2l1-8 3-31v-2l2-10 1-6v-7l1-9a736 736 0 0 0 3-24v-7a422 422 0 0 1 3-15v-9l1-6 1-2v-8l1-9 1-8v-3l2-8Zm36 75-3 28v5l-2 9v6l-1 11v3a3532 3532 0 0 1-3 27v6a517 517 0 0 1-2 15v2l-1 2v8h23l-1-19v-7l-1-8v-5a738 738 0 0 1-2-17v-2l-1-5v-8a68 68 0 0 1-2-14v-3l-1-10-1-7-1-17h-1Zm119 202h30a12675 12675 0 0 1 78 0v46H589l-3-1v-42c0-3 0-3 3-3Zm2-139h103l3 1v45H589l-3-1v-42c0-4 2-3 5-3Zm-5-138h111v45H586v-45Z" />
</symbol>

<symbol id="home" viewBox="0 0 495 495">
    <path d="m487 226-75-76V64a28 28 0 0 0-57 0v30l-56-56a75 75 0 0 0-103 0L8 226a28 28 0 0 0 40 40L236 78c6-6 17-6 23 0l188 188a28 28 0 1 0 40-40z" />
    <path d="M258 132c-6-6-15-6-20 0L73 297c-3 3-4 6-4 10v120c0 28 23 51 51 51h82V352h92v126h82c28 0 51-23 51-51V307c0-4-2-7-4-10L258 132z" />
</symbol>

<symbol id="sections" viewBox="-1 -1 22 22">
    <path
        fill-rule="evenodd"
        d="M18.9 17c0 .56-.52 1-1.1 1h-3.15c-.58 0-1-.44-1-1v-3a1 1 0 0 1 1-1h3.15c.58 0 1.1.46 1.1 1v3Zm-1.1-6h-3.15a3.04 3.04 0 0 0-3.1 3v3c0 1.67 1.36 3 3.1 3h3.15c1.74 0 3.2-1.33 3.2-3v-3c0-1.65-1.46-3-3.2-3ZM7.35 17c0 .56-.52 1-1.1 1H3.1c-.58 0-1-.44-1-1v-3a1 1 0 0 1 1-1h3.15c.58 0 1.1.46 1.1 1v3Zm-1.1-6H3.1A3.04 3.04 0 0 0 0 14v3c0 1.67 1.36 3 3.1 3h3.15c1.74 0 3.2-1.33 3.2-3v-3c0-1.65-1.46-3-3.2-3ZM18.9 6c0 .56-.52 1-1.1 1h-3.15c-.58 0-1-.44-1-1V3a1 1 0 0 1 1-1h3.15c.58 0 1.1.46 1.1 1v3Zm-1.1-6h-3.15a3.04 3.04 0 0 0-3.1 3v3c0 1.67 1.36 3 3.1 3h3.15C19.54 9 21 7.67 21 6V3c0-1.65-1.46-3-3.2-3ZM7.35 6c0 .56-.52 1-1.1 1H3.1c-.58 0-1-.44-1-1V3a1 1 0 0 1 1-1h3.15c.58 0 1.1.46 1.1 1v3Zm-1.1-6H3.1A3.04 3.04 0 0 0 0 3v3c0 1.67 1.36 3 3.1 3h3.15C8 9 9.45 7.67 9.45 6V3c0-1.65-1.46-3-3.2-3Z" />
</symbol>

<symbol id="news" viewBox="0 0 46 46">
    <path fill="none" d="M0 0h48v48H0z" />
    <path d="M40 8v32H8V8h32m2-4H6a2 2 0 0 0-2 2v36a2 2 0 0 0 2 2h36a2 2 0 0 0 2-2V6a2 2 0 0 0-2-2Z"/>
    <path d="M34 30H14a2 2 0 0 0 0 4h20a2 2 0 0 0 0-4Zm0-8h-6a2 2 0 0 0 0 4h6a2 2 0 0 0 0-4Zm0-8h-6a2 2 0 0 0 0 4h6a2 2 0 0 0 0-4Z"/>
    <rect x="12" y="14" width="10" height="12" rx="2" ry="2"/>
</symbol>

<symbol id="info" viewBox="0 0 16 16">
    <path
        fill-rule="evenodd"
        clip-rule="evenodd"
        d="M8 16A8 8 0 1 0 8 0a8 8 0 0 0 0 16zm0-9a1 1 0 0 1 1 1v3a1 1 0 0 1-2 0V8a1 1 0 0 1 1-1zm0-3a1 1 0 0 0 0 2 1 1 0 0 0 0-2z"
    />
</symbol>

<symbol id="contact" viewBox="0 0 32 32">
    <path
        fill-rule="evenodd"
        d="M24 16a2 2 0 1 1 0-4 2 2 0 0 1 0 4Zm-8 0a2 2 0 1 1 0-4 2 2 0 0 1 0 4Zm-8 0a2 2 0 1 1 0-4 2 2 0 0 1 0 4Zm8-16C7 0 0 6 0 14c0 4 2 8 6 11v7l7-4h3c9 0 16-6 16-14S25 0 16 0Z"
    />
</symbol>

<symbol id="close" viewBox="0 0 1024 1024">
    <path d="M195.2 195.2a64 64 0 0 1 90.5 0L512 421.5l226.3-226.3a64 64 0 0 1 90.5 90.5L602.5 512l226.3 226.3a64 64 0 0 1-90.5 90.5L512 602.5 285.7 828.8a64 64 0 0 1-90.5-90.5L421.5 512 195.2 285.7a64 64 0 0 1 0-90.5z" />
</symbol>

<symbol id="phone" viewBox="0 0 24 24">
    <path
        fill-rule="evenodd"
        clip-rule="evenodd"
        d="M17.35 22.23a21.73 21.73 0 0 1-9.9-5.68 21.73 21.73 0 0 1-5.68-9.9 2.76 2.76 0 0 1 1.12-2.92l2.33-1.66a3 3 0 0 1 4.2.73l1.47 2.12a2 2 0 0 1-.48 2.76l-1.17.84c.18.68.73 2.06 2.45 3.79 1.73 1.72 3.11 2.27 3.8 2.45l.83-1.17a2 2 0 0 1 2.76-.48l2.12 1.46a3 3 0 0 1 .73 4.21l-1.66 2.33a2.76 2.76 0 0 1-2.92 1.12Zm-8.49-7.1a19.65 19.65 0 0 0 8.98 5.16c.26.07.58-.03.8-.34l1.67-2.33a1 1 0 0 0-.25-1.4l-2.12-1.47-.9 1.26a1.8 1.8 0 0 1-1.82.74c-.99-.21-2.8-.9-4.94-3.03-2.14-2.13-2.82-3.95-3.03-4.94a1.8 1.8 0 0 1 .74-1.83l1.26-.9-1.47-2.11a1 1 0 0 0-1.4-.25L4.05 5.36c-.3.22-.4.54-.34.8a19.7 19.7 0 0 0 5.15 8.98Z"
    />
</symbol>

<symbol id="mail" viewBox="0 0 24 24">
    <path
        fill-rule="evenodd"
        clip-rule="evenodd"
        d="M16.5 21a1 1 0 0 1-.4 1.2A11 11 0 1 1 23 12l-.1 1.7c-.3 2-1.2 5.3-3.9 5.3-2.3 0-3.1-1.3-3.4-2.2A6 6 0 1 1 18 12v4c0 1 .5 1 .5 1 1 0 1.5-.8 1.9-1.7l.1-.4c.5-1.4.5-2.9.5-2.9a9 9 0 1 0-5.8 8.4 1 1 0 0 1 1.3.5ZM8 12a4 4 0 1 0 8 0 4 4 0 0 0-8 0Z"
    />
</symbol>

<symbol id="facebook" viewBox="0 0 24 24">
    <path
        fill-rule="evenodd"
        clip-rule="evenodd"
        d="M20 1a3 3 0 0 1 3 3v16a3 3 0 0 1-3 3H4a3 3 0 0 1-3-3V4a3 3 0 0 1 3-3h16Zm0 2c.6 0 1 .4 1 1v16c0 .6-.4 1-1 1h-5v-7h2a1 1 0 0 0 1-.7l.5-1.3c.1-.5-.2-1-.7-1H15V9c0-.5.5-1 1-1h2c.6 0 1-.4 1-1v-.7c0-.3-.2-.6-.5-.7-1.3-.3-2.5-.3-2.5-.3-2.5 0-4 1.7-4 3.2V11h-2a1 1 0 0 0-1 1v1c0 .6.4 1 1 1h2v7H4a1 1 0 0 1-1-1V4c0-.6.4-1 1-1h16Z"
    />
</symbol>

<symbol id="instagram" viewBox="0 0 24 24">
    <path
        fill-rule="evenodd"
        clip-rule="evenodd"
        d="M12 18a6 6 0 1 0 0-12 6 6 0 0 0 0 12Zm0-2a4 4 0 1 0 0-8 4 4 0 0 0 0 8Z"
    />

    <path d="M18 5a1 1 0 1 0 0 2 1 1 0 0 0 0-2Z" />
    <path
        fill-rule="evenodd"
        clip-rule="evenodd"
        d="M1.7 4.3C1 5.6 1 7.3 1 10.6v2.8c0 3.4 0 5 .7 6.3a6 6 0 0 0 2.6 2.6c1.3.7 3 .7 6.3.7h2.8c3.4 0 5 0 6.3-.7a6 6 0 0 0 2.6-2.6c.7-1.3.7-3 .7-6.3v-2.8c0-3.4 0-5-.7-6.3a6 6 0 0 0-2.6-2.6c-1.3-.7-3-.7-6.3-.7h-2.8c-3.4 0-5 0-6.3.7a6 6 0 0 0-2.6 2.6ZM13.4 3h-2.8a51.7 51.7 0 0 0-5.4.4 4 4 0 0 0-1.8 1.8c-.1.3-.3.7-.3 1.6L3 10.6v2.8a51.7 51.7 0 0 0 .4 5.4 4 4 0 0 0 1.8 1.8c.3.1.7.3 1.6.3l3.8.1h2.8a51.7 51.7 0 0 0 5.4-.4 4 4 0 0 0 1.8-1.8c.1-.3.3-.7.3-1.6l.1-3.8v-2.8a51.7 51.7 0 0 0-.4-5.4 4 4 0 0 0-1.8-1.8c-.3-.1-.7-.3-1.6-.3L13.4 3Z"
    />
</symbol>

<symbol id="youtube" viewBox="0 0 24 24">
    <path
        fill-rule="evenodd"
        clip-rule="evenodd"
        d="M9.5 7.1A1 1 0 0 0 8 8v8a1 1 0 0 0 1.5.9l7-4a1 1 0 0 0 0-1.8l-7-4ZM14 12l-4 2.3V9.7l4 2.3Z"
    />
    <path
        fill-rule="evenodd"
        clip-rule="evenodd"
        d="M0 12c0-3.7 0-5.6 1-7a5 5 0 0 1 1-1c1.4-1 3.3-1 7-1h6c3.7 0 5.6 0 7 1l1 1c1 1.4 1 3.3 1 7s0 5.6-1 7a5 5 0 0 1-1 1c-1.4 1-3.3 1-7 1H9c-3.7 0-5.6 0-7-1a5 5 0 0 1-1-1c-1-1.4-1-3.3-1-7Zm9-7h6l4.2.1c.9.1 1.3.3 1.6.5l.6.6c.2.3.4.7.5 1.6a43.5 43.5 0 0 1-.5 10 3 3 0 0 1-.6.6c-.3.2-.7.4-1.6.5L15 19H9l-4.2-.1c-.9-.1-1.3-.3-1.6-.5a3 3 0 0 1-.6-.6c-.2-.3-.4-.7-.5-1.6a43.5 43.5 0 0 1 .5-10l.6-.6c.3-.2.7-.4 1.6-.5L9 5Z"
    />
</symbol>

<symbol id="location" viewBox="0 0 24 24">
    <path
        fill-rule="evenodd"
        clip-rule="evenodd"
        d="M12 14a4.5 4.5 0 1 0 0-9 4.5 4.5 0 0 0 0 9Zm0-2a2.5 2.5 0 1 1 0-5 2.5 2.5 0 0 1 0 5Z"
    />
    <path
        fill-rule="evenodd"
        clip-rule="evenodd"
        d="M21.3 11.6A9.6 9.6 0 0 0 12 0C6 0 1.4 5.8 2.7 11.6c1 4.7 5 9.2 7.5 11.6 1 1 2.6 1 3.6 0 2.4-2.4 6.5-7 7.5-11.6ZM12 2c4.7 0 8.3 4.6 7.3 9.1-.5 2.2-1.6 4.2-2.8 6a36.2 36.2 0 0 1-4 4.7c-.3.3-.7.3-1 0a36.2 36.2 0 0 1-4-4.7 16.8 16.8 0 0 1-2.8-6A7.6 7.6 0 0 1 12 2Z"
    />
</symbol>

<symbol id="check" viewBox="0 0 24 24">
    <path
        fill-rule="evenodd"
        clip-rule="evenodd"
        d="M22 12a10 10 0 1 1-20 0 10 10 0 0 1 20 0Zm-6-3c.3.3.3.7 0 1l-5 5c-.3.3-.7.3-1 0l-2-2a.7.7 0 1 1 1-1l1.5 1.4 2.2-2.2L15 9c.3-.3.7-.3 1 0Z" />
</symbol>

<symbol id="error" viewBox="0 0 16 16">
    <path
        fill-rule="evenodd"
        d="m7.493.015-.386.04c-1.873.187-3.76 1.153-5.036 2.579C.66 4.211-.057 6.168.009 8.253c.115 3.601 2.59 6.65 6.101 7.518a8.034 8.034 0 0 0 6.117-.98 8 8 0 0 0 3.544-4.904c.172-.701.212-1.058.212-1.887s-.04-1.186-.212-1.887C14.979 2.878 12.315.498 9 .064 8.716.027 7.683-.006 7.493.015m1.36 1.548a6.519 6.519 0 0 1 3.091 1.271c.329.246.976.893 1.222 1.222.561.751.976 1.634 1.164 2.479a6.766 6.766 0 0 1 0 2.93c-.414 1.861-1.725 3.513-3.463 4.363a6.76 6.76 0 0 1-1.987.616c-.424.065-1.336.065-1.76 0-1.948-.296-3.592-1.359-4.627-2.993a7.502 7.502 0 0 1-.634-1.332A6.158 6.158 0 0 1 1.514 8c0-1.039.201-1.925.646-2.84.34-.698.686-1.18 1.253-1.747A5.956 5.956 0 0 1 5.16 2.16a6.452 6.452 0 0 1 3.693-.597M7.706 4.29c-.224.073-.351.201-.413.415-.036.122-.04.401-.034 2.111.008 1.97.008 1.971.066 2.08a.687.687 0 0 0 .346.308c.132.046.526.046.658 0a.687.687 0 0 0 .346-.308c.058-.109.058-.11.066-2.08.008-2.152.008-2.154-.145-2.335-.124-.148-.257-.197-.556-.205a1.705 1.705 0 0 0-.334.014m.08 6.24a.858.858 0 0 0-.467.402.849.849 0 0 0-.025.563A.777.777 0 0 0 8 12c.303 0 .612-.22.706-.505a.849.849 0 0 0-.025-.563.948.948 0 0 0-.348-.352c-.116-.06-.429-.089-.547-.05" />
</symbol>

<symbol id="up" viewBox="0 0 24 24">
    <path
        d="m5 15 5-5.15a2.74 2.74 0 0 1 4 0L19 15"
        fill="none"
        stroke-width="1.5"
        stroke-linecap="round"
        stroke-linejoin="round"/>
</symbol>

</defs>
</svg>